<svg width="40" height="40" viewBox="0 0 40 40" fill="none" xmlns="http://www.w3.org/2000/svg">
<rect width="40" height="40" rx="20" fill="#37437D"/>
<path fill-rule="evenodd" clip-rule="evenodd" d="M20.0347 13.125C17.3145 13.1102 15.0116 15.4298 15.0154 18.1241L15.0154 18.125L15.0154 18.75C15.0154 21.6348 14.4105 23.3721 13.8301 24.375H26.1694C25.589 23.3721 24.9841 21.6348 24.9841 18.75V18.1953C24.9841 15.4259 22.7736 13.1461 20.0347 13.125ZM13.7654 18.1254C13.7609 14.7417 16.6239 11.856 20.0423 11.875L20.0436 11.875C23.4919 11.9011 26.2341 14.7618 26.2341 18.1953V18.75C26.2341 21.4583 26.8009 22.9709 27.2516 23.7494L27.252 23.75C27.3615 23.9397 27.4192 24.1548 27.4194 24.3739C27.4196 24.5929 27.3622 24.8082 27.2531 24.9981C27.1439 25.188 26.9867 25.3459 26.7973 25.4559C26.6079 25.5659 26.3929 25.6242 26.1738 25.625L26.1716 25.625H13.8279L13.8257 25.625C13.6066 25.6242 13.3916 25.5659 13.2022 25.4559C13.0128 25.3459 12.8556 25.188 12.7464 24.9981C12.6373 24.8082 12.5799 24.5929 12.5801 24.3739C12.5803 24.1548 12.638 23.9397 12.7476 23.75L12.7479 23.7494C13.1986 22.9709 13.7654 21.4583 13.7654 18.75V18.1254Z" fill="white"/>
<path fill-rule="evenodd" clip-rule="evenodd" d="M17.4998 24.375C17.8449 24.375 18.1248 24.6548 18.1248 25V25.625C18.1248 26.1223 18.3223 26.5992 18.6739 26.9508C19.0256 27.3025 19.5025 27.5 19.9998 27.5C20.497 27.5 20.9739 27.3025 21.3256 26.9508C21.6772 26.5992 21.8748 26.1223 21.8748 25.625V25C21.8748 24.6548 22.1546 24.375 22.4998 24.375C22.8449 24.375 23.1248 24.6548 23.1248 25V25.625C23.1248 26.4538 22.7955 27.2487 22.2095 27.8347C21.6234 28.4208 20.8286 28.75 19.9998 28.75C19.1709 28.75 18.3761 28.4208 17.79 27.8347C17.204 27.2487 16.8748 26.4538 16.8748 25.625V25C16.8748 24.6548 17.1546 24.375 17.4998 24.375Z" fill="white"/>
<rect x="22" y="10" width="8" height="8" rx="4" fill="#F26CF9"/>
</svg>
