<svg width="40" height="40" viewBox="0 0 40 40" fill="none" xmlns="http://www.w3.org/2000/svg">
<rect width="40" height="40" rx="20" fill="#37437D"/>
<path fill-rule="evenodd" clip-rule="evenodd" d="M20.0001 16.875C18.2742 16.875 16.8751 18.2741 16.8751 20C16.8751 21.7259 18.2742 23.125 20.0001 23.125C21.726 23.125 23.1251 21.7259 23.1251 20C23.1251 18.2741 21.726 16.875 20.0001 16.875ZM15.6251 20C15.6251 17.5838 17.5838 15.625 20.0001 15.625C22.4163 15.625 24.3751 17.5838 24.3751 20C24.3751 22.4162 22.4163 24.375 20.0001 24.375C17.5838 24.375 15.6251 22.4162 15.6251 20Z" fill="white"/>
<path fill-rule="evenodd" clip-rule="evenodd" d="M17.3237 11.663C17.4954 11.6076 17.6826 11.6291 17.8373 11.7219L19.6642 12.818C19.8881 12.808 20.1124 12.808 20.3364 12.8181L22.1557 11.7293C22.3091 11.6375 22.4945 11.6158 22.6649 11.6697C23.8589 12.0469 24.9566 12.679 25.882 13.5224C26.0147 13.6433 26.089 13.8154 26.0859 13.9949L26.0502 16.1185C26.1736 16.308 26.2868 16.5039 26.3893 16.7053L28.2413 17.735C28.3972 17.8217 28.5087 17.9709 28.5476 18.1451C28.82 19.3654 28.8229 20.6306 28.556 21.8522C28.5176 22.0278 28.4055 22.1784 28.2482 22.2655L26.3891 23.2952C26.2866 23.4965 26.1734 23.6922 26.0502 23.8815L26.0859 26.0051C26.089 26.1846 26.0147 26.3567 25.882 26.4776C24.9585 27.3191 23.8655 27.9531 22.6765 28.337C22.5048 28.3924 22.3176 28.3709 22.1629 28.2781L20.336 27.182C20.112 27.192 19.8877 27.192 19.6638 27.1819L17.8445 28.2707C17.6911 28.3625 17.5057 28.3842 17.3352 28.3303C16.1413 27.9531 15.0436 27.321 14.1182 26.4776C13.9855 26.3567 13.9112 26.1845 13.9142 26.0051L13.95 23.8863C13.8274 23.6948 13.7143 23.4975 13.6112 23.2949L11.7589 22.265C11.6029 22.1783 11.4915 22.0291 11.4526 21.8549C11.1801 20.6346 11.1773 19.3694 11.4442 18.1478C11.4826 17.9722 11.5947 17.8216 11.752 17.7345L13.6111 16.7048C13.7136 16.5035 13.8267 16.3078 13.95 16.1185L13.9142 13.9949C13.9112 13.8154 13.9855 13.6433 14.1182 13.5224C15.0417 12.6809 16.1347 12.0469 17.3237 11.663ZM15.1689 14.263L15.2031 16.2942C15.2053 16.4258 15.166 16.5547 15.0906 16.6626C14.923 16.9026 14.7762 17.1565 14.6519 17.4216C14.596 17.5407 14.504 17.6392 14.3888 17.703L12.6111 18.6876C12.4556 19.5557 12.4578 20.4448 12.6175 21.3122L14.3897 22.2975C14.504 22.361 14.5955 22.4588 14.6512 22.577C14.7783 22.8462 14.9264 23.1048 15.0943 23.3506C15.1673 23.4574 15.2053 23.5843 15.2031 23.7137L15.1689 25.7369C15.8445 26.3076 16.617 26.7524 17.4497 27.0502L19.187 26.0106C19.297 25.9447 19.4246 25.9143 19.5525 25.9235C19.8505 25.9448 20.1497 25.9448 20.4477 25.9235C20.5758 25.9143 20.7037 25.9448 20.8138 26.0109L22.5567 27.0567C23.3867 26.7542 24.1567 26.3074 24.8312 25.737L24.797 23.7058C24.7948 23.5742 24.8342 23.4453 24.9096 23.3374C25.0772 23.0974 25.224 22.8435 25.3483 22.5784C25.4041 22.4593 25.4962 22.3608 25.6113 22.297L27.389 21.3124C27.5445 20.4443 27.5424 19.5552 27.3827 18.6878L25.6104 17.7025C25.4957 17.6387 25.404 17.5404 25.3483 17.4216C25.224 17.1565 25.0772 16.9026 24.9096 16.6626C24.8342 16.5547 24.7948 16.4258 24.797 16.2942L24.8312 14.2631C24.1557 13.6924 23.3832 13.2476 22.5505 12.9498L20.8132 13.9894C20.7032 14.0553 20.5756 14.0857 20.4477 14.0765C20.1497 14.0552 19.8505 14.0552 19.5525 14.0765C19.4243 14.0857 19.2965 14.0552 19.1863 13.9891L17.4435 12.9434C16.6135 13.2458 15.8435 13.6926 15.1689 14.263Z" fill="white"/>
</svg>
